# xmcd CD database file
#
# Track frame offsets:
#	150
#	14887
#	33307
#	52855
#	70005
#	88007
#	105480
#	123415
#	141377
#	157412
#	172702
#
# Disc length: 2538 seconds
#
# Revision: 2
# Processed by: cddbd v1.4PL0 Copyright (c) Steve Scherf et al.
# Submitted via: CDex 1.40Beta9
#
DISCID=9109e80b
DTITLE=BlackHawk - Love and Gravity
DYEAR=1900
DGENRE=Country
TTITLE0=Love And Gravity
TTITLE1=Stepping Stones
TTITLE2=Postmarked Birmingham
TTITLE3=Will You Be There (In The Morning)
TTITLE4=It Ain't About Love Anymore
TTITLE5=Nobody's Fool
TTITLE6=If That Was A Lie
TTITLE7=Hole In My Heart
TTITLE8=Hold Me Harmless
TTITLE9=She Dances With Her Shadow
TTITLE10=Lonely Boy
EXTD=ID3G: 2
EXTT0=
EXTT1=
EXTT2=
EXTT3=
EXTT4=
EXTT5=
EXTT6=
EXTT7=
EXTT8=
EXTT9=
EXTT10=
PLAYORDER=
